<svg width="23" height="23" viewBox="0 0 23 23" fill="none" xmlns="http://www.w3.org/2000/svg">
<path d="M14.7476 21.8176V20.7902L14.7477 20.7684C14.753 20.2018 15.2175 19.7437 15.7921 19.7385L15.8701 19.7383C17.3585 19.7265 18.6371 18.6928 18.9407 17.2558L18.9518 17.2018L19.4916 14.5403L20.4702 14.0578C20.9938 13.7996 21.2557 13.6705 21.3124 13.4337C21.369 13.197 21.1934 12.9661 20.8421 12.5041L18.859 9.89668C18.6617 9.63719 18.563 9.50745 18.5102 9.37018C18.4573 9.23292 18.441 9.03839 18.4085 8.64935C18.0515 4.38021 14.4249 1.02527 10.0037 1.02527C5.34594 1.02527 1.57007 4.74889 1.57007 9.34222C1.57007 12.2008 3.03249 14.7226 5.25979 16.2196M5.25979 16.2196V21.8176M5.25979 16.2196C5.9042 16.6528 6.61263 17.0001 7.3682 17.245" stroke="black" stroke-width="1.87131" stroke-linecap="round" stroke-linejoin="round"/>
<path d="M13.5243 8.30261L14.4807 9.12692C14.8827 9.47346 15.0837 9.64673 15.0837 9.86204C15.0837 10.0774 14.8827 10.2506 14.4807 10.5972L13.5243 11.4215" stroke="black" stroke-width="1.87131" stroke-linecap="round" stroke-linejoin="round"/>
<path d="M6.24864 8.30261L5.29229 9.12692C4.89024 9.47346 4.68921 9.64673 4.68921 9.86204C4.68921 10.0774 4.89023 10.2506 5.29229 10.5972L6.24864 11.4215" stroke="black" stroke-width="1.87131" stroke-linecap="round" stroke-linejoin="round"/>
<path d="M10.9247 7.26294L8.84546 12.461" stroke="black" stroke-width="1.87131" stroke-linecap="round" stroke-linejoin="round"/>
</svg>
