<svg width="26" height="26" viewBox="0 0 26 26" fill="none" xmlns="http://www.w3.org/2000/svg">
<path d="M3.04858 13.382C3.04858 8.48122 3.04858 6.03081 4.57107 4.50833C6.09356 2.98584 8.54396 2.98584 13.4448 2.98584C18.3456 2.98584 20.796 2.98584 22.3185 4.50833C23.841 6.03081 23.841 8.48122 23.841 13.382C23.841 18.2828 23.841 20.7332 22.3185 22.2557C20.796 23.7782 18.3456 23.7782 13.4448 23.7782C8.54396 23.7782 6.09356 23.7782 4.57107 22.2557C3.04858 20.7332 3.04858 18.2828 3.04858 13.382Z" stroke="black" stroke-width="1.87131"/>
<path d="M8.2478 15.4612L10.6315 13.0775C11.0375 12.6715 11.6958 12.6715 12.1018 13.0775L13.7504 14.7261C14.1564 15.1321 14.8146 15.1321 15.2206 14.7261L18.644 11.3027M18.644 11.3027V13.9018M18.644 11.3027H16.0449" stroke="black" stroke-width="1.87131" stroke-linecap="round" stroke-linejoin="round"/>
</svg>
