<svg width="26" height="26" viewBox="0 0 26 26" fill="none" xmlns="http://www.w3.org/2000/svg">
<path d="M5.13062 20.0946V9.08343C5.13062 6.11635 5.13062 4.63281 6.04411 3.71106C6.9576 2.78931 8.42784 2.78931 11.3683 2.78931H15.5268C18.4673 2.78931 19.9375 2.78931 20.851 3.71106C21.7645 4.63281 21.7645 6.11635 21.7645 9.08343V20.0946C21.7645 21.6661 21.7645 22.4519 21.2843 22.7613C20.4994 23.2667 19.2861 22.2067 18.6759 21.8219C18.1717 21.5039 17.9197 21.3449 17.6399 21.3358C17.3375 21.3258 17.081 21.4783 16.5361 21.8219L14.5496 23.0747C14.0137 23.4127 13.7457 23.5817 13.4476 23.5817C13.1494 23.5817 12.8814 23.4127 12.3456 23.0747L10.359 21.8219C9.8548 21.5039 9.6027 21.3449 9.32291 21.3358C9.02057 21.3258 8.764 21.4783 8.21919 21.8219C7.60901 22.2067 6.3957 23.2667 5.61087 22.7613C5.13062 22.4519 5.13062 21.6661 5.13062 20.0946Z" stroke="black" stroke-width="1.87131" stroke-linecap="round" stroke-linejoin="round"/>
<path d="M12.406 12.1459H9.28715" stroke="black" stroke-width="1.87131" stroke-linecap="round" stroke-linejoin="round"/>
<path d="M15.5251 7.9873L9.28743 7.9873" stroke="black" stroke-width="1.87131" stroke-linecap="round" stroke-linejoin="round"/>
</svg>
