<svg width="26" height="26" viewBox="0 0 26 26" fill="none" xmlns="http://www.w3.org/2000/svg">
<path d="M3.04858 15.3039C3.04858 11.3832 3.04858 9.42292 4.26657 8.20493C5.48456 6.98694 7.44489 6.98694 11.3655 6.98694H15.524C19.4447 6.98694 21.405 6.98694 22.623 8.20493C23.841 9.42292 23.841 11.3832 23.841 15.3039C23.841 19.2245 23.841 21.1849 22.623 22.4029C21.405 23.6208 19.4447 23.6208 15.524 23.6208H11.3655C7.44489 23.6208 5.48456 23.6208 4.26657 22.4029C3.04858 21.1849 3.04858 19.2245 3.04858 15.3039Z" stroke="black" stroke-width="1.87131"/>
<path d="M17.6038 6.98697C17.6038 5.02664 17.6038 4.04648 16.9948 3.43749C16.3858 2.82849 15.4057 2.82849 13.4453 2.82849C11.485 2.82849 10.5049 2.82849 9.89586 3.43749C9.28687 4.04648 9.28687 5.02664 9.28687 6.98697" stroke="black" stroke-width="1.87131"/>
<path d="M13.4462 18.7693C14.5945 18.7693 15.5254 17.9935 15.5254 17.0366C15.5254 16.0796 14.5945 15.3039 13.4462 15.3039C12.2978 15.3039 11.3669 14.5281 11.3669 13.5712C11.3669 12.6142 12.2978 11.8385 13.4462 11.8385M13.4462 18.7693C12.2978 18.7693 11.3669 17.9935 11.3669 17.0366M13.4462 18.7693V19.4623M13.4462 11.1454V11.8385M13.4462 11.8385C14.5945 11.8385 15.5254 12.6142 15.5254 13.5712" stroke="black" stroke-width="1.87131" stroke-linecap="round"/>
</svg>
