<svg width="40" height="41" viewBox="0 0 40 41" fill="none" xmlns="http://www.w3.org/2000/svg">
<rect y="0.127563" width="39.9214" height="39.9214" rx="19.9607" fill="#0F0F10"/>
<g filter="url(#filter0_d_169_28)">
<path d="M13.8742 19.0002C12.5668 19.4258 11.8263 20.8617 12.5987 21.9993C13.3057 23.0406 14.2325 23.9271 15.3248 24.5901C17.1331 25.6879 19.2753 26.1006 21.362 25.7533C23.4488 25.406 25.3418 24.3218 26.6972 22.6975C28.0526 21.0733 28.7804 19.0168 28.7485 16.9015C28.7166 14.7863 27.9271 12.7527 26.5233 11.17C25.1196 9.5874 23.1948 8.56074 21.0985 8.27655C19.0022 7.99236 16.8735 8.46948 15.099 9.62125C14.0272 10.317 13.1276 11.2309 12.4523 12.2931C11.7146 13.4535 12.498 14.8664 13.8177 15.2524C15.1374 15.6384 16.5011 14.7642 17.6031 13.9419C17.6703 13.8918 17.7393 13.8437 17.81 13.7978C18.5848 13.2949 19.5142 13.0866 20.4295 13.2107C21.3448 13.3348 22.1853 13.7831 22.7982 14.4741C23.4111 15.1651 23.7558 16.0531 23.7698 16.9766C23.7837 17.9002 23.4659 18.7981 22.8741 19.5073C22.2823 20.2165 21.4558 20.6899 20.5446 20.8416C19.6335 20.9932 18.6982 20.813 17.9086 20.3337C17.8365 20.29 17.7661 20.244 17.6975 20.1959C16.5712 19.4072 15.1817 18.5745 13.8742 19.0002Z" fill="white"/>
<path d="M12.2357 21.2214C12.2357 19.9369 13.277 18.8955 14.5615 18.8955C15.8461 18.8955 16.8874 19.9369 16.8874 21.2214V29.5946C16.8874 30.8792 15.8461 31.9205 14.5615 31.9205C13.277 31.9205 12.2357 30.8792 12.2357 29.5946V21.2214Z" fill="white"/>
<path d="M16.7065 19.8262C17.0015 20.0011 17.2887 20.1936 17.564 20.3864C17.6369 20.4374 17.7115 20.4862 17.7879 20.5325C18.6251 21.0407 19.6167 21.2318 20.5828 21.071C21.5489 20.9102 22.4252 20.4083 23.0527 19.6564C23.6802 18.9044 24.0171 17.9524 24.0023 16.9731C23.9876 15.9939 23.6221 15.0524 22.9722 14.3197C22.3223 13.5871 21.4313 13.1118 20.4608 12.9802C19.4903 12.8487 18.5048 13.0695 17.6834 13.6027C17.6084 13.6514 17.5353 13.7024 17.464 13.7555C16.9156 14.1647 16.3178 14.5746 15.7012 14.8362C15.086 15.0972 14.473 15.2018 13.883 15.0292C13.2832 14.8537 12.8109 14.4462 12.5722 13.9606C12.3358 13.4794 12.3275 12.923 12.6486 12.4179C13.3061 11.3837 14.182 10.4937 15.2257 9.81635C16.9534 8.69488 19.0261 8.23032 21.0672 8.50703C23.1083 8.78374 24.9825 9.78338 26.3493 11.3244C27.7161 12.8654 28.4849 14.8455 28.5159 16.905C28.547 18.9646 27.8383 20.967 26.5186 22.5485C25.1989 24.13 23.3557 25.1857 21.3239 25.5239C19.9059 25.7598 18.4617 25.6354 17.12 25.1755V21.2214C17.12 20.7067 16.968 20.2275 16.7065 19.8262ZM12.9209 19.9212C13.1709 19.6106 13.5248 19.3586 13.9462 19.2213C13.9704 19.2135 13.9946 19.2061 14.0189 19.1991C14.192 19.1528 14.3739 19.1281 14.5615 19.1281C15.7176 19.1281 16.6549 20.0653 16.6549 21.2214V25.0008C16.2386 24.8307 15.8341 24.6272 15.4455 24.3913C14.3819 23.7457 13.4795 22.8826 12.7911 21.8686C12.4549 21.3735 12.4464 20.817 12.6683 20.329C12.6764 20.311 12.6849 20.2931 12.6937 20.2754C12.7576 20.1495 12.8339 20.0309 12.9209 19.9212ZM16.6549 25.5012V29.5946C16.6549 30.7507 15.7176 31.6879 14.5615 31.6879C13.4055 31.6879 12.4682 30.7507 12.4682 29.5946V22.2201C13.1857 23.2499 14.1147 24.1277 15.2041 24.789C15.6683 25.0708 16.154 25.3086 16.6549 25.5012Z" stroke="white" stroke-width="0.465178"/>
</g>
<path d="M19.7555 15.654L19.9099 14.9687L20.0642 15.654C20.202 16.2656 20.6797 16.7432 21.2913 16.881L21.9765 17.0354L21.2913 17.1897C20.6797 17.3275 20.202 17.8051 20.0642 18.4168L19.9099 19.102L19.7555 18.4168C19.6177 17.8051 19.1401 17.3275 18.5285 17.1897L17.8432 17.0354L18.5285 16.881C19.1401 16.7432 19.6177 16.2656 19.7555 15.654Z" fill="white" stroke="white" stroke-width="0.465178"/>
<mask id="path-5-inside-1_169_28" fill="white">
<path d="M18.516 17.9647C18.537 17.9647 18.5553 17.9793 18.5599 17.9998L18.5922 18.1434C18.6158 18.2482 18.6977 18.33 18.8025 18.3536L18.946 18.386C18.9665 18.3906 18.9811 18.4088 18.9811 18.4299C18.9811 18.451 18.9665 18.4692 18.946 18.4738L18.8025 18.5062C18.6977 18.5298 18.6158 18.6116 18.5922 18.7164L18.5599 18.86C18.5553 18.8805 18.537 18.8951 18.516 18.8951C18.4949 18.8951 18.4767 18.8805 18.472 18.86L18.4397 18.7164C18.4161 18.6116 18.3343 18.5298 18.2295 18.5062L18.0859 18.4738C18.0654 18.4692 18.0508 18.451 18.0508 18.4299C18.0508 18.4088 18.0654 18.3906 18.0859 18.386L18.2295 18.3536C18.3343 18.33 18.4161 18.2482 18.4397 18.1434L18.472 17.9998C18.4767 17.9793 18.4949 17.9647 18.516 17.9647Z"/>
</mask>
<path d="M18.516 17.9647C18.537 17.9647 18.5553 17.9793 18.5599 17.9998L18.5922 18.1434C18.6158 18.2482 18.6977 18.33 18.8025 18.3536L18.946 18.386C18.9665 18.3906 18.9811 18.4088 18.9811 18.4299C18.9811 18.451 18.9665 18.4692 18.946 18.4738L18.8025 18.5062C18.6977 18.5298 18.6158 18.6116 18.5922 18.7164L18.5599 18.86C18.5553 18.8805 18.537 18.8951 18.516 18.8951C18.4949 18.8951 18.4767 18.8805 18.472 18.86L18.4397 18.7164C18.4161 18.6116 18.3343 18.5298 18.2295 18.5062L18.0859 18.4738C18.0654 18.4692 18.0508 18.451 18.0508 18.4299C18.0508 18.4088 18.0654 18.3906 18.0859 18.386L18.2295 18.3536C18.3343 18.33 18.4161 18.2482 18.4397 18.1434L18.472 17.9998C18.4767 17.9793 18.4949 17.9647 18.516 17.9647Z" fill="white"/>
<path d="M18.5599 17.9998L19.0137 17.8976L19.0137 17.8976L18.5599 17.9998ZM18.5922 18.1434L19.046 18.0412L19.046 18.0412L18.5922 18.1434ZM18.8025 18.3536L18.7002 18.8075H18.7002L18.8025 18.3536ZM18.946 18.386L19.0482 17.9322L19.0482 17.9322L18.946 18.386ZM18.946 18.4738L19.0482 18.9276L19.0482 18.9276L18.946 18.4738ZM18.8025 18.5062L18.9047 18.96L18.9047 18.96L18.8025 18.5062ZM18.5922 18.7164L18.1384 18.6142L18.1384 18.6142L18.5922 18.7164ZM18.5599 18.86L19.0137 18.9622L19.0137 18.9622L18.5599 18.86ZM18.472 18.86L18.0182 18.9622L18.0182 18.9622L18.472 18.86ZM18.4397 18.7164L17.9859 18.8186L18.4397 18.7164ZM18.2295 18.5062L18.1272 18.96H18.1272L18.2295 18.5062ZM18.0859 18.4738L17.9837 18.9276L17.9837 18.9276L18.0859 18.4738ZM18.0859 18.386L18.1881 18.8398H18.1881L18.0859 18.386ZM18.2295 18.3536L18.1272 17.8998L18.1272 17.8998L18.2295 18.3536ZM18.4397 18.1434L18.8935 18.2456L18.4397 18.1434ZM18.472 17.9998L18.9259 18.1021V18.1021L18.472 17.9998ZM19.0137 17.8976C18.9613 17.6649 18.7545 17.4995 18.516 17.4995V18.4299C18.3195 18.4299 18.1492 18.2937 18.1061 18.1021L19.0137 17.8976ZM19.046 18.0412L19.0137 17.8976L18.1061 18.1021L18.1384 18.2456L19.046 18.0412ZM18.9047 17.8998C18.9751 17.9157 19.0302 17.9707 19.046 18.0412L18.1384 18.2456C18.2015 18.5257 18.4202 18.7444 18.7002 18.8075L18.9047 17.8998ZM19.0482 17.9322L18.9047 17.8998L18.7002 18.8075L18.8438 18.8398L19.0482 17.9322ZM19.4463 18.4299C19.4463 18.1913 19.281 17.9846 19.0482 17.9322L18.8438 18.8398C18.6521 18.7966 18.516 18.6264 18.516 18.4299H19.4463ZM19.0482 18.9276C19.281 18.8752 19.4463 18.6685 19.4463 18.4299H18.516C18.516 18.2334 18.6521 18.0632 18.8438 18.02L19.0482 18.9276ZM18.9047 18.96L19.0482 18.9276L18.8438 18.02L18.7002 18.0523L18.9047 18.96ZM19.046 18.8186C19.0302 18.8891 18.9751 18.9441 18.9047 18.96L18.7002 18.0523C18.4202 18.1154 18.2015 18.3341 18.1384 18.6142L19.046 18.8186ZM19.0137 18.9622L19.046 18.8186L18.1384 18.6142L18.1061 18.7577L19.0137 18.9622ZM18.516 19.3603C18.7545 19.3603 18.9613 19.1949 19.0137 18.9622L18.1061 18.7577C18.1492 18.5661 18.3195 18.4299 18.516 18.4299V19.3603ZM18.0182 18.9622C18.0707 19.1949 18.2774 19.3603 18.516 19.3603V18.4299C18.7124 18.4299 18.8827 18.5661 18.9259 18.7577L18.0182 18.9622ZM17.9859 18.8186L18.0182 18.9622L18.9259 18.7577L18.8935 18.6142L17.9859 18.8186ZM18.1272 18.96C18.0568 18.9441 18.0018 18.8891 17.9859 18.8186L18.8935 18.6142C18.8304 18.3341 18.6117 18.1154 18.3317 18.0523L18.1272 18.96ZM17.9837 18.9276L18.1272 18.96L18.3317 18.0523L18.1881 18.02L17.9837 18.9276ZM17.5856 18.4299C17.5856 18.6685 17.7509 18.8752 17.9837 18.9276L18.1881 18.02C18.3798 18.0632 18.516 18.2334 18.516 18.4299H17.5856ZM17.9837 17.9322C17.7509 17.9846 17.5856 18.1913 17.5856 18.4299H18.516C18.516 18.6264 18.3798 18.7966 18.1881 18.8398L17.9837 17.9322ZM18.1272 17.8998L17.9837 17.9322L18.1881 18.8398L18.3317 18.8075L18.1272 17.8998ZM17.9859 18.0412C18.0018 17.9707 18.0568 17.9157 18.1272 17.8998L18.3317 18.8075C18.6117 18.7444 18.8304 18.5257 18.8935 18.2456L17.9859 18.0412ZM18.0182 17.8976L17.9859 18.0412L18.8935 18.2456L18.9259 18.1021L18.0182 17.8976ZM18.516 17.4995C18.2774 17.4995 18.0707 17.6649 18.0182 17.8976L18.9259 18.1021C18.8827 18.2937 18.7124 18.4299 18.516 18.4299V17.4995Z" fill="white" mask="url(#path-5-inside-1_169_28)"/>
<defs>
<filter id="filter0_d_169_28" x="12.168" y="8.19641" width="18.649" height="27.3422" filterUnits="userSpaceOnUse" color-interpolation-filters="sRGB">
<feFlood flood-opacity="0" result="BackgroundImageFix"/>
<feColorMatrix in="SourceAlpha" type="matrix" values="0 0 0 0 0 0 0 0 0 0 0 0 0 0 0 0 0 0 127 0" result="hardAlpha"/>
<feOffset dx="1.03373" dy="2.58432"/>
<feGaussianBlur stdDeviation="0.516865"/>
<feComposite in2="hardAlpha" operator="out"/>
<feColorMatrix type="matrix" values="0 0 0 0 0.1344 0 0 0 0 0.268614 0 0 0 0 0.8256 0 0 0 0.05 0"/>
<feBlend mode="normal" in2="BackgroundImageFix" result="effect1_dropShadow_169_28"/>
<feBlend mode="normal" in="SourceGraphic" in2="effect1_dropShadow_169_28" result="shape"/>
</filter>
</defs>
</svg>
