<svg width="26" height="26" viewBox="0 0 26 26" fill="none" xmlns="http://www.w3.org/2000/svg">
<path d="M11.1409 3.71927C12.6182 3.02668 14.2737 3.02668 15.751 3.71927L22.7073 6.98055C24.2205 7.68994 24.2205 10.1456 22.7073 10.855L15.7511 14.1162C14.2738 14.8088 12.6183 14.8088 11.141 14.1162L4.18465 10.8549C2.67152 10.1455 2.67152 7.68989 4.18466 6.9805L11.1409 3.71927Z" stroke="black" stroke-width="1.87131"/>
<path d="M3.0498 8.91772V14.6356" stroke="black" stroke-width="1.87131" stroke-linecap="round"/>
<path d="M20.7234 12.0366V17.3651C20.7234 18.4131 20.1999 19.3942 19.2831 19.9019C17.7566 20.7473 15.3132 21.913 13.446 21.913C11.5789 21.913 9.13546 20.7473 7.60892 19.9019C6.69215 19.3942 6.1687 18.4131 6.1687 17.3651V12.0366" stroke="black" stroke-width="1.87131" stroke-linecap="round"/>
</svg>
