<svg width="26" height="26" viewBox="0 0 26 26" fill="none" xmlns="http://www.w3.org/2000/svg">
<path d="M5.7315 9.76841L3.0498 9.60953C4.97206 4.67208 10.491 1.85988 15.8718 3.25809C21.6029 4.74729 25.0071 10.4489 23.4752 15.9929C22.2082 20.5785 17.9614 23.62 13.2879 23.692" stroke="black" stroke-width="1.87131" stroke-linecap="round" stroke-linejoin="round"/>
<path d="M13.446 23.692C7.72809 23.692 3.0498 18.4939 3.0498 12.2562" stroke="black" stroke-width="1.87131" stroke-linecap="round" stroke-linejoin="round" stroke-dasharray="0.62 3.74"/>
<path d="M15.1133 10.9274C14.7479 10.5437 13.8518 9.642 12.4365 10.2821C11.0212 10.9223 10.7964 12.9819 12.9372 13.2007C13.9048 13.2996 14.5357 13.086 15.1133 13.6903C15.6908 14.2946 15.7981 15.9753 14.3216 16.4283C12.8451 16.8812 11.8885 16.1332 11.6311 15.8992M13.35 9.15771V9.98008M13.35 16.5677V17.4747" stroke="black" stroke-width="1.87131" stroke-linecap="round" stroke-linejoin="round"/>
</svg>
