<svg width="26" height="26" viewBox="0 0 26 26" fill="none" xmlns="http://www.w3.org/2000/svg">
<path d="M15.5237 15.9418C15.5237 14.2193 16.9201 12.823 18.6426 12.823C20.3651 12.823 21.7614 14.2193 21.7614 15.9418C21.7614 17.6643 20.3651 19.0607 18.6426 19.0607C16.9201 19.0607 15.5237 17.6643 15.5237 15.9418Z" stroke="black" stroke-width="1.87131"/>
<path d="M5.12921 10.7437C5.12921 12.4662 6.52557 13.8626 8.24806 13.8626C9.97056 13.8626 11.3669 12.4662 11.3669 10.7437C11.3669 9.02124 9.97056 7.62488 8.24806 7.62488C6.52557 7.62488 5.12921 9.02124 5.12921 10.7437Z" stroke="black" stroke-width="1.87131"/>
<path d="M18.6013 10.2239L18.6013 2.94655" stroke="black" stroke-width="1.87131" stroke-linecap="round"/>
<path d="M8.20483 16.4615L8.20483 23.7389" stroke="black" stroke-width="1.87131" stroke-linecap="round"/>
<path d="M18.6013 23.7389L18.6013 21.6597" stroke="black" stroke-width="1.87131" stroke-linecap="round"/>
<path d="M8.20483 2.94653L8.20483 5.02577" stroke="black" stroke-width="1.87131" stroke-linecap="round"/>
</svg>
