<svg width="30" height="30" viewBox="0 0 30 30" fill="none" xmlns="http://www.w3.org/2000/svg">
<rect width="30" height="30" rx="14.9705" fill="#B981DA"/>
<path d="M18.1163 19.6611C18.4737 20.9948 17.6822 22.3656 16.3485 22.723C15.0149 23.0803 13.644 22.2889 13.2867 20.9552M6.79207 14.3266C6.46749 13.1614 6.80503 11.9017 7.6687 11.0549M15.2 9.43284C15.4535 8.97676 15.537 8.42551 15.3913 7.88168C15.0935 6.77029 13.9511 6.11075 12.8397 6.40854C11.7283 6.70634 11.0688 7.84871 11.3666 8.96009C11.5123 9.50392 11.8602 9.93957 12.3078 10.2078M22.0106 10.2488C21.7091 9.07746 20.7869 8.1553 19.6156 7.85382M19.6536 12.5199C19.3561 11.4098 18.562 10.4815 17.4459 9.93918C16.3299 9.3969 14.9833 9.28507 13.7024 9.62829C12.4215 9.9715 11.3112 10.7417 10.6158 11.7693C9.92042 12.797 9.69686 13.998 9.99431 15.1081C10.4865 16.9448 10.3909 18.4101 10.0801 19.5235C9.72588 20.7926 9.54877 21.4271 9.59661 21.5545C9.65136 21.7003 9.69096 21.7403 9.83615 21.7966C9.96306 21.8457 10.4962 21.7029 11.5625 21.4172L21.45 18.7678C22.5163 18.4821 23.0495 18.3392 23.1348 18.2332C23.2324 18.1119 23.2467 18.0574 23.2212 17.9038C23.1989 17.7696 22.7283 17.3086 21.787 16.3867C20.9611 15.5778 20.1457 14.3566 19.6536 12.5199Z" stroke="#1A1D1F" stroke-linecap="round" stroke-linejoin="round"/>
</svg>
