<svg width="21" height="20" viewBox="0 0 21 20" fill="none" xmlns="http://www.w3.org/2000/svg">
<g clip-path="url(#clip0_159_286)">
<rect x="0.495117" width="20" height="20" rx="10" fill="#0C68E9"/>
<path d="M11.5049 6.16272C11.288 5.94576 10.9362 5.94576 10.7193 6.16272C10.5023 6.37968 10.5023 6.73143 10.7193 6.94839L13.1042 9.33333H5.55653C5.24971 9.33333 5.00098 9.58206 5.00098 9.88889C5.00098 10.1957 5.24971 10.4444 5.55653 10.4444H13.1042L10.7193 12.8294C10.5023 13.0463 10.5023 13.3981 10.7193 13.6151C10.9362 13.832 11.288 13.832 11.5049 13.6151L14.8383 10.2817C15.0552 10.0648 15.0552 9.71301 14.8383 9.49605L11.5049 6.16272Z" fill="#FCFCFC"/>
</g>
<defs>
<clipPath id="clip0_159_286">
<rect x="0.495117" width="20" height="20" rx="10" fill="white"/>
</clipPath>
</defs>
</svg>
