<svg width="20" height="20" viewBox="0 0 20 20" fill="none" xmlns="http://www.w3.org/2000/svg">
<rect width="20" height="20" rx="10" fill="#1A1D1F"/>
<path fill-rule="evenodd" clip-rule="evenodd" d="M8.36709 5.61354C8.36709 5.30732 8.61533 5.05908 8.92155 5.05908H12.2491H14.4661H14.4669C14.7731 5.05908 15.0214 5.30732 15.0214 5.61354V11.1582C15.0214 11.4644 14.7731 11.7126 14.4669 11.7126H12.2491C11.9429 11.7126 11.6947 11.4644 11.6947 11.1582V8.38586H8.92155C8.61533 8.38586 8.36709 8.13762 8.36709 7.8314V5.61354ZM11.6933 14.4848C11.6933 14.7911 11.445 15.0393 11.1388 15.0393H7.8132L5.59538 15.0393H5.59425C5.28803 15.0393 5.03979 14.7911 5.03979 14.4848V12.267C5.03979 12.255 5.04017 12.2431 5.04092 12.2314L5.04092 8.94021C5.04092 8.63399 5.28916 8.38575 5.59538 8.38575L7.8132 8.38575C8.11942 8.38575 8.36766 8.63399 8.36766 8.94021V11.7125L11.1388 11.7125C11.445 11.7125 11.6933 11.9608 11.6933 12.267L11.6933 14.4848Z" fill="#FCFCFC"/>
</svg>
