<svg width="26" height="25" viewBox="0 0 26 25" fill="none" xmlns="http://www.w3.org/2000/svg">
<path fill-rule="evenodd" clip-rule="evenodd" d="M12.574 3.8986C12.2294 3.8986 11.8988 4.03551 11.6551 4.27922C11.4146 4.5197 11.2782 4.84473 11.2746 5.18444C11.2772 5.33723 11.2345 5.48728 11.1536 5.61537C11.095 5.70806 11.0164 5.78925 10.9202 5.85165C10.8863 5.87378 10.8506 5.89333 10.8133 5.91004C9.75368 6.41435 8.85034 7.19625 8.1993 8.17281C7.54851 9.149 7.17423 10.2831 7.11603 11.4546V14.5547C7.11603 14.586 7.11415 14.6173 7.11038 14.6484C7.01748 15.4159 6.74565 16.1509 6.3168 16.7942C6.29446 16.8277 6.27172 16.8609 6.24859 16.8938H18.8995C18.8763 16.8609 18.8536 16.8277 18.8313 16.7942C18.4024 16.1509 18.1306 15.4159 18.0377 14.6484C18.0339 14.6173 18.032 14.586 18.032 14.5547V11.4546C17.9738 10.2831 17.5995 9.149 16.9488 8.17281C16.2947 7.1917 15.386 6.40706 14.32 5.90301C14.0474 5.77412 13.8736 5.49963 13.8736 5.19812C13.8736 4.85347 13.7366 4.52293 13.4929 4.27922C13.2492 4.03551 12.9187 3.8986 12.574 3.8986ZM9.75926 4.6974C9.86106 4.12514 10.1358 3.59317 10.5524 3.17654C11.0886 2.64038 11.8158 2.33917 12.574 2.33917C13.3323 2.33917 14.0595 2.64038 14.5956 3.17654C15.0122 3.59317 15.287 4.12514 15.3888 4.69741C16.5372 5.32135 17.5188 6.21656 18.2463 7.3078C19.0573 8.52438 19.522 9.93874 19.5906 11.3993C19.5912 11.4115 19.5915 11.4236 19.5915 11.4358V14.5052C19.6599 15.0144 19.8436 15.5014 20.1288 15.9292C20.4222 16.3693 20.8149 16.7344 21.2752 16.9951C21.5833 17.1696 21.7352 17.5298 21.645 17.8722C21.5547 18.2146 21.2451 18.4533 20.891 18.4533H4.25708C3.90297 18.4533 3.59332 18.2146 3.5031 17.8722C3.41288 17.5298 3.56474 17.1696 3.87287 16.9951C4.33318 16.7344 4.72585 16.3693 5.01928 15.9292C5.30446 15.5014 5.48815 15.0144 5.5566 14.5052V11.4358C5.5566 11.4236 5.55689 11.4115 5.55746 11.3993C5.62602 9.93874 6.09072 8.52438 6.90178 7.3078C7.62927 6.21656 8.61081 5.32134 9.75926 4.6974Z" fill="black"/>
<path fill-rule="evenodd" clip-rule="evenodd" d="M9.45517 16.8938C9.8858 16.8938 10.2349 17.2429 10.2349 17.6735V18.7132C10.2349 19.3335 10.4813 19.9285 10.92 20.3672C11.3587 20.8059 11.9537 21.0523 12.574 21.0523C13.1944 21.0523 13.7894 20.8059 14.2281 20.3672C14.6667 19.9285 14.9132 19.3335 14.9132 18.7132V17.6735C14.9132 17.2429 15.2623 16.8938 15.6929 16.8938C16.1235 16.8938 16.4726 17.2429 16.4726 17.6735V18.7132C16.4726 19.7471 16.0619 20.7388 15.3307 21.4699C14.5996 22.201 13.608 22.6117 12.574 22.6117C11.5401 22.6117 10.5484 22.201 9.81732 21.4699C9.0862 20.7388 8.67546 19.7471 8.67546 18.7132V17.6735C8.67546 17.2429 9.02455 16.8938 9.45517 16.8938Z" fill="black"/>
</svg>
