<svg width="24" height="25" viewBox="0 0 24 25" fill="none" xmlns="http://www.w3.org/2000/svg">
<path d="M6.5 14H13.5V13H6.5V14ZM6.5 11H17.5V10H6.5V11ZM6.5 8H17.5V7H6.5V8ZM3 20.577V5.116C3 4.65533 3.15433 4.271 3.463 3.963C3.77167 3.655 4.15567 3.50067 4.615 3.5H19.385C19.845 3.5 20.229 3.65433 20.537 3.963C20.845 4.27167 20.9993 4.656 21 5.116V15.885C21 16.345 20.8457 16.7293 20.537 17.038C20.2283 17.3467 19.8443 17.5007 19.385 17.5H6.077L3 20.577ZM5.65 16.5H19.385C19.5383 16.5 19.6793 16.436 19.808 16.308C19.9367 16.18 20.0007 16.039 20 15.885V5.115C20 4.96167 19.936 4.82067 19.808 4.692C19.68 4.56333 19.539 4.49933 19.385 4.5H4.615C4.46167 4.5 4.32067 4.564 4.192 4.692C4.06333 4.82 3.99933 4.961 4 5.115V18.145L5.65 16.5Z" fill="black"/>
</svg>
