<svg width="24" height="25" viewBox="0 0 24 25" fill="none" xmlns="http://www.w3.org/2000/svg">
<path fill-rule="evenodd" clip-rule="evenodd" d="M12 23.25C6.06294 23.25 1.25 18.4371 1.25 12.5C1.25 6.56294 6.06294 1.75 12 1.75C17.9371 1.75 22.75 6.56294 22.75 12.5C22.75 18.4371 17.9371 23.25 12 23.25ZM16.48 9.87756C16.9645 9.61257 17.1425 9.00493 16.8775 8.52037C16.6125 8.03582 16.0049 7.85782 15.5204 8.12282C13.6917 9.12286 12.1796 11.0528 11.1629 12.6096C10.7872 13.185 10.4662 13.7297 10.2094 14.1911C9.96984 13.9587 9.73258 13.757 9.52038 13.5892C9.2427 13.3697 8.99282 13.1965 8.81063 13.0772L8.49559 12.8815C8.01585 12.6079 7.40513 12.775 7.13152 13.2548C6.85797 13.7344 7.02493 14.3449 7.50442 14.6187L7.71471 14.7502C7.85752 14.8437 8.05764 14.9823 8.27997 15.1581C8.73753 15.5198 9.23126 15.994 9.54198 16.5135C9.73267 16.8323 10.0844 17.0191 10.4553 16.9987C10.8261 16.9782 11.1551 16.7536 11.3096 16.4159L11.4079 16.2105C11.4756 16.0721 11.577 15.8697 11.709 15.6204C11.9735 15.1207 12.3581 14.4372 12.8374 13.7032C13.8208 12.1975 15.1086 10.6275 16.48 9.87756Z" fill="#555F75"/>
</svg>
