<svg width="18" height="18" viewBox="0 0 18 18" fill="none" xmlns="http://www.w3.org/2000/svg">
<path d="M1.50195 6.17436C1.50195 5.27723 1.86374 4.72742 2.61243 4.31077L5.69436 2.59564C7.30928 1.69692 8.11674 1.24756 9.00195 1.24756C9.88717 1.24756 10.6946 1.69692 12.3095 2.59564L15.3915 4.31077C16.1402 4.72742 16.502 5.27723 16.502 6.17436C16.502 6.41763 16.502 6.53927 16.4754 6.63926C16.3358 7.16464 15.8598 7.24756 15.4 7.24756H2.60392C2.14416 7.24756 1.66809 7.16464 1.52852 6.63926C1.50195 6.53927 1.50195 6.41763 1.50195 6.17436Z" stroke="#555F75" stroke-width="1.62181"/>
<path d="M8.99595 4.99744H9.00269" stroke="#555F75" stroke-width="1.49705" stroke-linecap="round" stroke-linejoin="round"/>
<path d="M3 7.24756V13.6226M6 7.24756V13.6226" stroke="#555F75" stroke-width="1.62181"/>
<path d="M12.002 7.24744V13.6224M15.002 7.24744V13.6224" stroke="#555F75" stroke-width="1.62181"/>
<path d="M14.252 13.6224H3.75195C2.50931 13.6224 1.50195 14.6298 1.50195 15.8724C1.50195 16.0795 1.66985 16.2474 1.87695 16.2474H16.127C16.3341 16.2474 16.502 16.0795 16.502 15.8724C16.502 14.6298 15.4946 13.6224 14.252 13.6224Z" stroke="#555F75" stroke-width="1.62181"/>
</svg>
