<svg width="14" height="14" viewBox="0 0 14 14" fill="none" xmlns="http://www.w3.org/2000/svg">
<path d="M5.16685 7.29522C3.71525 6.20994 2.68079 5.01617 2.11595 4.34505C1.9411 4.13731 1.88381 3.98527 1.84936 3.71747C1.7314 2.80047 1.67242 2.34197 1.94131 2.04598C2.21019 1.75 2.68569 1.75 3.63669 1.75H10.3633C11.3143 1.75 11.7898 1.75 12.0587 2.04598C12.3276 2.34197 12.2686 2.80047 12.1506 3.71747C12.1162 3.98528 12.0589 4.13731 11.884 4.34506C11.3184 5.01703 10.2819 6.21291 8.82733 7.29957C8.69574 7.39788 8.609 7.5581 8.59291 7.73582C8.44882 9.32865 8.31594 10.2011 8.23323 10.6424C8.09973 11.355 7.08935 11.7837 6.54851 12.1662C6.22653 12.3939 5.83584 12.1228 5.79412 11.7704C5.71458 11.0986 5.56477 9.73372 5.40124 7.73582C5.38655 7.55646 5.2995 7.39438 5.16685 7.29522Z" stroke="#888E9E" stroke-width="1.87131" stroke-linecap="round" stroke-linejoin="round"/>
</svg>
