<svg width="26" height="26" viewBox="0 0 26 26" fill="none" xmlns="http://www.w3.org/2000/svg">
<path d="M4.58472 16.3663L4.58472 20.5248" stroke="#555F75" stroke-width="1.87131" stroke-linecap="round" stroke-linejoin="round"/>
<path d="M12.9016 10.1285L12.9016 20.5247" stroke="#555F75" stroke-width="1.87131" stroke-linecap="round" stroke-linejoin="round"/>
<path d="M23.2979 23.6437L2.50547 23.6437" stroke="#555F75" stroke-width="1.87131" stroke-linecap="round" stroke-linejoin="round"/>
<path d="M21.2188 14.2871L21.2188 20.5248" stroke="#555F75" stroke-width="1.87131" stroke-linecap="round" stroke-linejoin="round"/>
<path d="M6.24834 9.92053C5.869 9.41555 5.26507 9.08891 4.58485 9.08891C3.43652 9.08891 2.50562 10.0198 2.50562 11.1681C2.50562 12.3165 3.43652 13.2474 4.58485 13.2474C5.73318 13.2474 6.66409 12.3165 6.66409 11.1681C6.66409 10.7 6.5094 10.268 6.24834 9.92053ZM6.24834 9.92053L11.2383 6.17805M11.2383 6.17805C11.6177 6.68303 12.2216 7.00967 12.9018 7.00967C13.7158 7.00967 14.4206 6.5419 14.7619 5.8605M11.2383 6.17805C10.9773 5.83053 10.8226 5.39855 10.8226 4.93043C10.8226 3.7821 11.7535 2.8512 12.9018 2.8512C14.0501 2.8512 14.981 3.7821 14.981 4.93043C14.981 5.26475 14.9021 5.58064 14.7619 5.8605M14.7619 5.8605L19.3586 8.15884M19.3586 8.15884C19.2184 8.4387 19.1395 8.75459 19.1395 9.08891C19.1395 10.2372 20.0704 11.1681 21.2188 11.1681C22.3671 11.1681 23.298 10.2372 23.298 9.08891C23.298 7.94058 22.3671 7.00967 21.2188 7.00967C20.4047 7.00967 19.7 7.47744 19.3586 8.15884Z" stroke="#555F75" stroke-width="1.87131"/>
</svg>
