<svg width="32" height="32" viewBox="0 0 32 32" fill="none" xmlns="http://www.w3.org/2000/svg">
<g opacity="0.92" filter="url(#filter0_i_88_314)">
<rect x="2" y="2" width="28" height="28" rx="7.59031" fill="#6438F5"/>
<rect x="2" y="2" width="28" height="28" rx="7.59031" fill="white" fill-opacity="0.02"/>
<rect x="1.46979" y="1.46979" width="29.0604" height="29.0604" rx="8.12052" stroke="url(#paint0_linear_88_314)" stroke-width="1.06041"/>
<path d="M18.7028 11.1618L18.8179 11.2217H18.9476H18.9573H19.4875V10.6915V6.03021H22.4698V17.4851C22.4698 18.4954 22.2869 19.4385 21.9271 20.2903C21.5612 21.1568 21.0709 21.9105 20.4592 22.5382C19.8466 23.1567 19.1145 23.6565 18.2867 24.0262C17.4568 24.3825 16.5744 24.5698 15.6354 24.5698C14.7009 24.5698 13.81 24.3906 12.9855 24.0268L12.9828 24.0256C12.1595 23.6678 11.4263 23.1591 10.8103 22.5368C10.2023 21.9226 9.71283 21.1622 9.35625 20.2969C9.01294 19.4404 8.83025 18.4945 8.83025 17.4851C8.83025 16.472 9.0045 15.5377 9.35534 14.6856C9.71117 13.8214 10.2004 13.0698 10.8103 12.4536L10.8103 12.4537L10.813 12.4508C11.4147 11.8339 12.1464 11.3338 12.9666 10.9634C13.7837 10.6088 14.6846 10.4207 15.6354 10.4207C16.5793 10.4207 17.4606 10.5997 18.2854 10.9637L18.2854 10.9638L18.2957 10.9681C18.4228 11.021 18.5544 11.0846 18.7028 11.1618ZM12.872 20.4737L12.872 20.4737L12.8746 20.4767C13.5846 21.2633 14.5196 21.6656 15.6257 21.6656C16.1544 21.6656 16.6568 21.5601 17.1268 21.3462C17.5935 21.1439 18.0068 20.8458 18.3411 20.4628C18.6785 20.0874 18.9454 19.6449 19.1329 19.1399C19.3215 18.6318 19.4193 18.0823 19.4193 17.4952C19.4193 16.9074 19.3212 16.3558 19.121 15.8348L19.121 15.8348L19.1196 15.831C18.9249 15.3357 18.6614 14.8864 18.3343 14.5108L18.3344 14.5107L18.3284 14.5041C17.9887 14.127 17.5917 13.8324 17.1322 13.6108C16.655 13.3806 16.1467 13.2742 15.616 13.2742C14.5006 13.2742 13.5804 13.6664 12.8681 14.4907C12.1653 15.2939 11.8321 16.3175 11.8321 17.4952C11.8321 18.6647 12.1664 19.6801 12.872 20.4737Z" fill="url(#paint1_linear_88_314)" fill-opacity="0.88" stroke="url(#paint2_linear_88_314)" stroke-width="1.06041"/>
</g>
<defs>
<filter id="filter0_i_88_314" x="0.939697" y="0.0382257" width="30.1206" height="31.0222" filterUnits="userSpaceOnUse" color-interpolation-filters="sRGB">
<feFlood flood-opacity="0" result="BackgroundImageFix"/>
<feBlend mode="normal" in="SourceGraphic" in2="BackgroundImageFix" result="shape"/>
<feColorMatrix in="SourceAlpha" type="matrix" values="0 0 0 0 0 0 0 0 0 0 0 0 0 0 0 0 0 0 127 0" result="hardAlpha"/>
<feOffset dy="-0.901349"/>
<feGaussianBlur stdDeviation="3.6054"/>
<feComposite in2="hardAlpha" operator="arithmetic" k2="-1" k3="1"/>
<feColorMatrix type="matrix" values="0 0 0 0 1 0 0 0 0 1 0 0 0 0 1 0 0 0 0.4 0"/>
<feBlend mode="normal" in2="shape" result="effect1_innerShadow_88_314"/>
</filter>
<linearGradient id="paint0_linear_88_314" x1="16" y1="2" x2="16" y2="48.0833" gradientUnits="userSpaceOnUse">
<stop offset="0.0873106" stop-color="#6438F5"/>
<stop offset="1" stop-color="#6438F5" stop-opacity="0.2"/>
</linearGradient>
<linearGradient id="paint1_linear_88_314" x1="15.65" y1="5.5" x2="15.65" y2="35.2206" gradientUnits="userSpaceOnUse">
<stop offset="0.313079" stop-color="white"/>
<stop offset="1" stop-color="white" stop-opacity="0"/>
</linearGradient>
<linearGradient id="paint2_linear_88_314" x1="41.5969" y1="-42.0715" x2="-10.7427" y2="-10.2264" gradientUnits="userSpaceOnUse">
<stop stop-color="white"/>
<stop offset="1" stop-color="white" stop-opacity="0"/>
</linearGradient>
</defs>
</svg>
