<svg width="26" height="25" viewBox="0 0 26 25" fill="none" xmlns="http://www.w3.org/2000/svg">
<path d="M15.3324 7.72775L15.3324 7.72776C16.0897 8.39035 16.5067 9.28064 16.5043 10.2337V10.2338C16.5043 11.6354 15.5804 12.8974 14.1477 13.4486L14.1477 13.4486C13.9243 13.5349 13.7321 13.6865 13.5961 13.8836C13.4601 14.0808 13.3867 14.3143 13.3854 14.5538V14.5539V15.107C13.3854 15.2061 13.3043 15.2873 13.2051 15.2873H12.0356C11.9364 15.2873 11.8553 15.2061 11.8553 15.107V14.5831C11.8553 14.0231 12.0201 13.4705 12.3376 13.01C12.6502 12.5593 13.0864 12.2151 13.6002 12.0188L13.6002 12.0188C14.4355 11.698 14.9765 10.9989 14.9765 10.2338C14.9765 9.14877 13.9172 8.26986 12.6228 8.26986C11.3284 8.26986 10.269 9.14877 10.269 10.2338V10.4189C10.269 10.5181 10.1878 10.5993 10.0887 10.5993H8.91914C8.82001 10.5993 8.73883 10.5181 8.73883 10.4189V10.2338C8.73883 9.28065 9.15591 8.39035 9.91316 7.72776C10.6413 7.09182 11.6028 6.73967 12.6228 6.73967C13.6428 6.73967 14.6042 7.0894 15.3324 7.72775ZM14.153 13.4623C15.5906 12.9092 16.5189 11.6421 16.5189 10.2338L12.3255 13.0018C12.0063 13.4647 11.8406 14.0203 11.8406 14.5831V15.107C11.8406 15.2142 11.9284 15.3019 12.0356 15.3019H13.2051C13.3123 15.3019 13.4001 15.2142 13.4001 15.107V14.5539C13.4013 14.3173 13.4738 14.0867 13.6081 13.8919C13.7424 13.6972 13.9323 13.5475 14.153 13.4623ZM1.72141 12.4754C1.72141 6.45536 6.60269 1.57407 12.6228 1.57407C18.6429 1.57407 23.5242 6.45536 23.5242 12.4754C23.5242 18.4955 18.6429 23.3768 12.6228 23.3768C6.60269 23.3768 1.72141 18.4955 1.72141 12.4754ZM3.54399 12.4754C3.54399 17.4883 7.60992 21.5542 12.6228 21.5542C17.6356 21.5542 21.7016 17.4883 21.7016 12.4754C21.7016 7.46258 17.6356 3.39665 12.6228 3.39665C7.60992 3.39665 3.54399 7.46258 3.54399 12.4754ZM11.9439 18.5148C11.7639 18.3348 11.6628 18.0906 11.6628 17.836C11.6628 17.5814 11.7639 17.3372 11.9439 17.1571C12.124 16.9771 12.3682 16.876 12.6228 16.876C12.8774 16.876 13.1216 16.9771 13.3016 17.1571C13.4817 17.3372 13.5828 17.5814 13.5828 17.836C13.5828 18.0906 13.4817 18.3348 13.3016 18.5148C13.1216 18.6949 12.8774 18.796 12.6228 18.796C12.3682 18.796 12.124 18.6949 11.9439 18.5148Z" fill="black" stroke="black" stroke-width="0.0292393"/>
</svg>
