<svg width="42" height="42" viewBox="0 0 42 42" fill="none" xmlns="http://www.w3.org/2000/svg">
<path d="M10.4727 31.4688L10.4727 23.0474" stroke="#555F75" stroke-width="1.87131" stroke-linecap="round"/>
<path d="M21.0005 31.4687L21.0005 10.415" stroke="#555F75" stroke-width="1.87131" stroke-linecap="round"/>
<path d="M31.5273 31.4686L31.5273 18.8364" stroke="#555F75" stroke-width="1.87131" stroke-linecap="round"/>
<path d="M0.999023 20.9419C0.999023 11.5133 0.999023 6.79907 3.9281 3.86999C6.85717 0.940918 11.5715 0.940918 21 0.940918C30.4286 0.940918 35.1428 0.940918 38.0719 3.86999C41.001 6.79907 41.001 11.5133 41.001 20.9419C41.001 30.3704 41.001 35.0847 38.0719 38.0138C35.1428 40.9429 30.4286 40.9429 21 40.9429C11.5715 40.9429 6.85717 40.9429 3.9281 38.0138C0.999023 35.0847 0.999023 30.3704 0.999023 20.9419Z" stroke="#555F75" stroke-width="1.87131" stroke-linejoin="round"/>
</svg>
