<svg width="18" height="19" viewBox="0 0 18 19" fill="none" xmlns="http://www.w3.org/2000/svg">
<path d="M3.43463 7.19316L1.5 7.07854C2.88675 3.51657 6.86823 1.4878 10.75 2.49649C14.8846 3.57083 17.3404 7.68406 16.2352 11.6836C15.3212 14.9917 12.2575 17.1859 8.88593 17.2379" stroke="#555F75" stroke-width="1.87131" stroke-linecap="round" stroke-linejoin="round"/>
<path d="M9 17.2379C4.875 17.2379 1.5 13.4879 1.5 8.98792" stroke="#555F75" stroke-width="1.87131" stroke-linecap="round" stroke-linejoin="round" stroke-dasharray="0.62 3.74"/>
<path d="M10.2022 8.02937C9.9386 7.75254 9.29221 7.10206 8.27118 7.56387C7.25015 8.02568 7.08796 9.51155 8.63238 9.66939C9.33043 9.74074 9.78555 9.58661 10.2022 10.0226C10.6189 10.4586 10.6963 11.6711 9.63112 11.9978C8.56595 12.3246 7.87578 11.7849 7.69015 11.6161M8.93013 6.75269V7.34595M8.93013 12.0984V12.7527" stroke="#555F75" stroke-width="1.87131" stroke-linecap="round" stroke-linejoin="round"/>
</svg>
