<svg width="21" height="21" viewBox="0 0 21 21" fill="none" xmlns="http://www.w3.org/2000/svg">
<path fill-rule="evenodd" clip-rule="evenodd" d="M11.5081 2.67189C11.258 1.64084 9.79097 1.64084 9.54084 2.67189C9.12919 4.36471 7.19442 5.16759 5.70413 4.26149C4.79693 3.70918 3.75918 4.74738 4.31119 5.6535C4.52191 5.99919 4.64804 6.38973 4.67934 6.79337C4.71064 7.19711 4.64617 7.60253 4.49118 7.97664C4.33618 8.35075 4.09504 8.68298 3.78738 8.94628C3.47978 9.20954 3.11438 9.39646 2.7209 9.49183C1.68985 9.74196 1.68985 11.209 2.7209 11.4591C3.11411 11.5547 3.47962 11.7419 3.78693 12.0051C4.09425 12.2684 4.3351 12.6005 4.48991 12.9744C4.64473 13.3483 4.70914 13.7534 4.67791 14.1569C4.64668 14.5603 4.52069 14.9507 4.31018 15.2963C3.75806 16.2035 4.79644 17.2407 5.70251 16.6887C6.04819 16.478 6.43874 16.3519 6.84238 16.3206C7.24612 16.2893 7.65154 16.3537 8.02565 16.5087C8.39976 16.6637 8.73199 16.9049 8.99529 17.2125C9.25855 17.5201 9.44547 17.8855 9.54084 18.279C9.79097 19.3101 11.258 19.3101 11.5081 18.279C11.6037 17.8858 11.7909 17.5203 12.0541 17.213C12.3174 16.9057 12.6495 16.6648 13.0234 16.51C13.3973 16.3552 13.8024 16.2908 14.2059 16.322C14.6093 16.3532 14.9997 16.4792 15.3453 16.6897C16.2525 17.2419 17.2897 16.2035 16.7377 15.2974C16.527 14.9517 16.4009 14.5612 16.3696 14.1575C16.3383 13.7538 16.4028 13.3484 16.5578 12.9743C16.7127 12.6002 16.9539 12.2679 17.2615 12.0046C17.5692 11.7414 17.9346 11.5545 18.328 11.4591C19.3591 11.209 19.3591 9.74196 18.328 9.49183C17.9348 9.39621 17.5693 9.20905 17.262 8.94577C16.9547 8.68249 16.7138 8.35042 16.559 7.97653C16.4042 7.60265 16.3398 7.19752 16.371 6.79405C16.4023 6.39059 16.5282 6.00019 16.7388 5.65459C17.2909 4.74742 16.2525 3.7102 15.3464 4.26218C15.0007 4.4729 14.6102 4.59903 14.2065 4.63033C13.8028 4.66163 13.3974 4.59716 13.0233 4.44217C12.6492 4.28717 12.3169 4.04603 12.0536 3.73837C11.7904 3.43077 11.6035 3.06537 11.5081 2.67189ZM8.02547 2.30383C8.66139 -0.31585 12.388 -0.315713 13.0236 2.30424C13.0611 2.45918 13.1348 2.60329 13.2384 2.72441C13.3421 2.84553 13.4729 2.94047 13.6202 3.00149C13.7674 3.06251 13.9271 3.08789 14.086 3.07557C14.2449 3.06324 14.3987 3.01356 14.5349 2.93057C16.837 1.52809 19.4728 4.16252 18.0707 6.46566C17.9878 6.60172 17.9381 6.75556 17.9258 6.9144C17.9135 7.07324 17.9389 7.23274 17.9998 7.37994C18.0608 7.52713 18.1556 7.65787 18.2766 7.76152C18.3974 7.86508 18.541 7.93868 18.6957 7.97636C21.3158 8.61198 21.3158 12.3389 18.6957 12.9746C18.5407 13.0121 18.3966 13.0857 18.2755 13.1894C18.1544 13.2931 18.0595 13.4239 17.9984 13.5711C17.9374 13.7184 17.912 13.878 17.9244 14.037C17.9367 14.1959 17.9864 14.3497 18.0694 14.4859C19.4718 16.788 16.8374 19.4238 14.5343 18.0216C14.3982 17.9388 14.2444 17.8891 14.0855 17.8768C13.9267 17.8645 13.7672 17.8899 13.62 17.9508C13.4728 18.0118 13.3421 18.1066 13.2384 18.2276C13.1348 18.3484 13.0612 18.492 13.0236 18.6467C12.3879 21.2668 8.66099 21.2668 8.02537 18.6467C7.98783 18.4917 7.91418 18.3476 7.81052 18.2265C7.70686 18.1054 7.57606 18.0104 7.42878 17.9494C7.28149 17.8884 7.12188 17.863 6.96293 17.8753C6.80398 17.8877 6.65019 17.9373 6.51407 18.0203C4.21192 19.4228 1.5761 16.7884 2.97827 14.4853C3.06115 14.3492 3.11083 14.1953 3.12313 14.0365C3.13543 13.8777 3.11007 13.7182 3.04912 13.571C2.98817 13.4238 2.89335 13.293 2.77236 13.1894C2.65148 13.0858 2.5079 13.0122 2.35325 12.9746C-0.266839 12.3389 -0.266839 8.61198 2.35325 7.97636C2.50819 7.93882 2.6523 7.86517 2.77342 7.76151C2.89454 7.65785 2.98948 7.52705 3.0505 7.37976C3.11152 7.23248 3.1369 7.07287 3.12458 6.91392C3.11225 6.75497 3.06257 6.60118 2.97958 6.46506C1.57718 4.16304 4.21123 1.52739 6.51428 2.92902C7.10311 3.28703 7.86303 2.97066 8.02547 2.30383Z" fill="black"/>
<path fill-rule="evenodd" clip-rule="evenodd" d="M10.5245 8.13631C9.23259 8.13631 8.18532 9.18358 8.18532 10.4755C8.18532 11.7673 9.23259 12.8146 10.5245 12.8146C11.8163 12.8146 12.8636 11.7673 12.8636 10.4755C12.8636 9.18358 11.8163 8.13631 10.5245 8.13631ZM6.6259 10.4755C6.6259 8.32233 8.37135 6.57688 10.5245 6.57688C12.6776 6.57688 14.423 8.32233 14.423 10.4755C14.423 12.6286 12.6776 14.374 10.5245 14.374C8.37135 14.374 6.6259 12.6286 6.6259 10.4755Z" fill="black"/>
</svg>
