<svg width="30" height="30" viewBox="0 0 30 30" fill="none" xmlns="http://www.w3.org/2000/svg">
<path d="M17.8948 11.3722C17.7217 10.8853 17.4023 10.4637 16.9803 10.1653C16.5584 9.86685 16.0545 9.70611 15.5377 9.70506H13.6027C13.0506 9.70217 12.5171 9.90408 12.1053 10.2717C11.6935 10.6394 11.4327 11.1467 11.3733 11.6956C11.3138 12.2444 11.46 12.7958 11.7835 13.2431C12.1071 13.6904 12.585 14.0018 13.1248 14.1172L16.0712 14.7601C16.6737 14.892 17.2062 15.2418 17.5664 15.7425C17.9266 16.2431 18.089 16.8592 18.0226 17.4723C17.9562 18.0855 17.6655 18.6525 17.2064 19.0643C16.7473 19.4762 16.1523 19.7039 15.5355 19.7036H13.8705C12.782 19.7036 11.8562 19.0093 11.5134 18.0386M14.7041 9.70506V7.20435M14.7041 22.2043V19.7058M4.28125 28.9243V23.5672H9.63839" stroke="black" stroke-linecap="round" stroke-linejoin="round"/>
<path d="M28.6882 12.4372C29.2571 15.4698 28.8029 18.6054 27.3969 21.352C25.991 24.0985 23.7129 26.3005 20.9201 27.6123C18.1273 28.9241 14.9781 29.2714 11.9666 28.5998C8.95505 27.9282 6.25179 26.2756 4.28106 23.9015M1.31106 17.5629C0.742189 14.5303 1.19637 11.3946 2.60233 8.64809C4.00828 5.90153 6.28642 3.69956 9.07917 2.38777C11.8719 1.07599 15.0212 0.728651 18.0327 1.40028C21.0442 2.0719 23.7475 3.72447 25.7182 6.09861" stroke="black" stroke-width="2" stroke-linecap="round" stroke-linejoin="round"/>
<path d="M25.7185 1.07581V6.43295H20.3613" stroke="black" stroke-linecap="round" stroke-linejoin="round"/>
</svg>
