<svg width="21" height="24" viewBox="0 0 21 24" fill="none" xmlns="http://www.w3.org/2000/svg">
<path d="M14.9038 20.75H15.8663V17H14.9038V20.75ZM15.385 15.9663C15.5192 15.9829 15.6329 15.9404 15.7262 15.8387C15.8187 15.7379 15.865 15.62 15.865 15.485C15.865 15.35 15.815 15.2363 15.715 15.1438C15.615 15.0513 15.505 15.005 15.385 15.005C15.25 15.005 15.1358 15.0513 15.0425 15.1438C14.95 15.2371 14.9038 15.3508 14.9038 15.485C14.9038 15.6042 14.95 15.7142 15.0425 15.815C15.1358 15.9158 15.25 15.9663 15.385 15.9663ZM1.25 2V9.9575V9.885V22V2ZM4.375 13.875H8.46375C8.59708 13.6525 8.73875 13.4371 8.88875 13.2288C9.03875 13.0204 9.19708 12.8192 9.36375 12.625H4.375V13.875ZM4.375 18.875H7.45C7.41917 18.6667 7.40375 18.4625 7.40375 18.2625C7.40375 18.0625 7.41083 17.85 7.425 17.625H4.375V18.875ZM2.02 23.25C1.44417 23.25 0.96375 23.0575 0.57875 22.6725C0.19375 22.2875 0.000833333 21.8071 0 21.2313V2.76875C0 2.19375 0.192916 1.71375 0.57875 1.32875C0.964583 0.94375 1.445 0.750833 2.02 0.75H11.875L17.5 6.375V10.1875C17.2808 10.1267 17.0708 10.0767 16.87 10.0375C16.67 10 16.4633 9.97333 16.25 9.9575V7H11.25V2H2.02C1.8275 2 1.65083 2.08 1.49 2.24C1.32917 2.4 1.24917 2.57625 1.25 2.76875V21.2313C1.25 21.4229 1.33 21.5992 1.49 21.76C1.65 21.9208 1.82625 22.0008 2.01875 22H8.56C8.69333 22.2392 8.835 22.4629 8.985 22.6713C9.135 22.8796 9.30125 23.0725 9.48375 23.25H2.02ZM15.385 12.865C16.7767 12.865 17.9579 13.3504 18.9287 14.3213C19.8996 15.2921 20.385 16.4733 20.385 17.865C20.385 19.2583 19.8996 20.44 18.9287 21.41C17.9587 22.38 16.7775 22.865 15.385 22.865C13.9925 22.865 12.8108 22.38 11.84 21.41C10.8692 20.44 10.3842 19.2583 10.385 17.865C10.385 16.4733 10.87 15.2921 11.84 14.3213C12.8108 13.3504 13.9925 12.865 15.385 12.865Z" fill="black"/>
</svg>
